{
  "accessors": [
    {
      "bufferView": 2,
      "componentType": 5126,
      "count": 1378,
      "max": [
        3.0500001907348633,
        0.6500000357627869,
        3.819999933242798
      ],
      "min": [
        -3.0500001907348633,
        -0.4749999940395355,
        -3.049999952316284
      ],
      "type": "VEC3"
    },
    {
      "bufferView": 2,
      "byteOffset": 16536,
      "componentType": 5126,
      "count": 1378,
      "max": [
        1.0,
        1.0,
        1.0
      ],
      "min": [
        -1.0,
        -1.0,
        -1.0
      ],
      "type": "VEC3"
    },
    {
      "bufferView": 1,
      "componentType": 5126,
      "count": 1378,
      "max": [
        0.9425458908081055,
        0.9331925511360168
      ],
      "min": [
        0.18833869695663452,
        0.16958361864089966
      ],
      "type": "VEC2"
    },
    {
      "bufferView": 0,
      "componentType": 5125,
      "count": 2166,
      "type": "SCALAR"
    },
    {
      "bufferView": 2,
      "byteOffset": 33072,
      "componentType": 5126,
      "count": 360,
      "max": [
        0.487464040517807,
        1.5,
        1.4265848398208618
      ],
      "min": [
        -0.48746415972709656,
        -1.5,
        -1.4265848398208618
      ],
      "type": "VEC3"
    },
    {
      "bufferView": 2,
      "byteOffset": 37392,
      "componentType": 5126,
      "count": 360,
      "max": [
        1.0,
        0.9975442290306091,
        1.0
      ],
      "min": [
        -1.0,
        -0.9975442290306091,
        -1.0
      ],
      "type": "VEC3"
    },
    {
      "bufferView": 1,
      "byteOffset": 11024,
      "componentType": 5126,
      "count": 360,
      "max": [
        0.9366453886032104,
        0.9278899431228638
      ],
      "min": [
        0.9366094470024109,
        0.923599123954773
      ],
      "type": "VEC2"
    },
    {
      "bufferView": 0,
      "byteOffset": 8664,
      "componentType": 5125,
      "count": 540,
      "type": "SCALAR"
    },
    {
      "bufferView": 2,
      "byteOffset": 41712,
      "componentType": 5126,
      "count": 360,
      "max": [
        0.487464040517807,
        1.5,
        1.4265848398208618
      ],
      "min": [
        -0.48746415972709656,
        -1.5,
        -1.4265848398208618
      ],
      "type": "VEC3"
    },
    {
      "bufferView": 2,
      "byteOffset": 46032,
      "componentType": 5126,
      "count": 360,
      "max": [
        1.0,
        0.9975442290306091,
        1.0
      ],
      "min": [
        -1.0,
        -0.9975442290306091,
        -1.0
      ],
      "type": "VEC3"
    },
    {
      "bufferView": 1,
      "byteOffset": 13904,
      "componentType": 5126,
      "count": 360,
      "max": [
        0.9365320205688477,
        0.9278899431228638
      ],
      "min": [
        0.9364960193634033,
        0.923599123954773
      ],
      "type": "VEC2"
    },
    {
      "bufferView": 0,
      "byteOffset": 10824,
      "componentType": 5125,
      "count": 540,
      "type": "SCALAR"
    },
    {
      "bufferView": 2,
      "byteOffset": 50352,
      "componentType": 5126,
      "count": 360,
      "max": [
        0.487464040517807,
        1.5,
        1.4265848398208618
      ],
      "min": [
        -0.48746415972709656,
        -1.5,
        -1.4265848398208618
      ],
      "type": "VEC3"
    },
    {
      "bufferView": 2,
      "byteOffset": 54672,
      "componentType": 5126,
      "count": 360,
      "max": [
        1.0,
        0.9975442290306091,
        1.0
      ],
      "min": [
        -1.0,
        -0.9975442290306091,
        -1.0
      ],
      "type": "VEC3"
    },
    {
      "bufferView": 1,
      "byteOffset": 16784,
      "componentType": 5126,
      "count": 360,
      "max": [
        0.9365698099136353,
        0.9278899431228638
      ],
      "min": [
        0.9365338087081909,
        0.923599123954773
      ],
      "type": "VEC2"
    },
    {
      "bufferView": 0,
      "byteOffset": 12984,
      "componentType": 5125,
      "count": 540,
      "type": "SCALAR"
    },
    {
      "bufferView": 2,
      "byteOffset": 58992,
      "componentType": 5126,
      "count": 360,
      "max": [
        0.487464040517807,
        1.5,
        1.4265848398208618
      ],
      "min": [
        -0.48746415972709656,
        -1.5,
        -1.4265848398208618
      ],
      "type": "VEC3"
    },
    {
      "bufferView": 2,
      "byteOffset": 63312,
      "componentType": 5126,
      "count": 360,
      "max": [
        1.0,
        0.9975442290306091,
        1.0
      ],
      "min": [
        -1.0,
        -0.9975442290306091,
        -1.0
      ],
      "type": "VEC3"
    },
    {
      "bufferView": 1,
      "byteOffset": 19664,
      "componentType": 5126,
      "count": 360,
      "max": [
        0.9366075992584229,
        0.9278899431228638
      ],
      "min": [
        0.9365716576576233,
        0.923599123954773
      ],
      "type": "VEC2"
    },
    {
      "bufferView": 0,
      "byteOffset": 15144,
      "componentType": 5125,
      "count": 540,
      "type": "SCALAR"
    }
  ],
  "asset": {
    "extras": {
      "author": "Yash Dushettiwar (https://sketchfab.com/Yash-D)",
      "license": "CC-BY-4.0 (http://creativecommons.org/licenses/by/4.0/)",
      "source": "https://sketchfab.com/3d-models/futuristic-jet-plane-e74ee75e1aaf42deac16fe11aa4933e5",
      "title": "Futuristic Jet Plane"
    },
    "generator": "Sketchfab-12.68.0",
    "version": "2.0"
  },
  "bufferViews": [
    {
      "buffer": 0,
      "byteLength": 17304,
      "name": "floatBufferViews",
      "target": 34963
    },
    {
      "buffer": 0,
      "byteLength": 22544,
      "byteOffset": 17304,
      "byteStride": 8,
      "name": "floatBufferViews",
      "target": 34962
    },
    {
      "buffer": 0,
      "byteLength": 67632,
      "byteOffset": 39848,
      "byteStride": 12,
      "name": "floatBufferViews",
      "target": 34962
    }
  ],
  "buffers": [
    {
      "byteLength": 107480,
      "uri": "scene.bin"
    }
  ],
  "images": [
    {
      "uri": "textures/Plane_Body_baseColor.png"
    },
    {
      "uri": "textures/Plane_Body_metallicRoughness.png"
    }
  ],
  "materials": [
    {
      "doubleSided": true,
      "name": "Plane_Body",
      "pbrMetallicRoughness": {
        "baseColorTexture": {
          "index": 0
        },
        "metallicRoughnessTexture": {
          "index": 1
        }
      }
    }
  ],
  "meshes": [
    {
      "name": "Plane_Plane Body_0",
      "primitives": [
        {
          "attributes": {
            "NORMAL": 1,
            "POSITION": 0,
            "TEXCOORD_0": 2
          },
          "indices": 3,
          "material": 0,
          "mode": 4
        }
      ]
    },
    {
      "name": "FL_Plane Body_0",
      "primitives": [
        {
          "attributes": {
            "NORMAL": 5,
            "POSITION": 4,
            "TEXCOORD_0": 6
          },
          "indices": 7,
          "material": 0,
          "mode": 4
        }
      ]
    },
    {
      "name": "BR_Plane Body_0",
      "primitives": [
        {
          "attributes": {
            "NORMAL": 9,
            "POSITION": 8,
            "TEXCOORD_0": 10
          },
          "indices": 11,
          "material": 0,
          "mode": 4
        }
      ]
    },
    {
      "name": "BL_Plane Body_0",
      "primitives": [
        {
          "attributes": {
            "NORMAL": 13,
            "POSITION": 12,
            "TEXCOORD_0": 14
          },
          "indices": 15,
          "material": 0,
          "mode": 4
        }
      ]
    },
    {
      "name": "FR_Plane Body_0",
      "primitives": [
        {
          "attributes": {
            "NORMAL": 17,
            "POSITION": 16,
            "TEXCOORD_0": 18
          },
          "indices": 19,
          "material": 0,
          "mode": 4
        }
      ]
    }
  ],
  "nodes": [
    {
      "children": [
        1
      ],
      "matrix": [
        0.9990788102149963,
        -0.04291326552629471,
        -9.528659089829074e-18,
        0.0,
        0.0,
        2.220446049250313e-16,
        -1.0,
        0.0,
        0.04291326552629471,
        0.9990788102149963,
        2.218400597031592e-16,
        0.0,
        -0.026820287108421326,
        0.0005757075268775225,
        1.2783275035788632e-19,
        1.0
      ],
      "name": "Sketchfab_model"
    },
    {
      "children": [
        2
      ],
      "matrix": [
        1.0,
        0.0,
        0.0,
        0.0,
        0.0,
        0.0,
        1.0,
        0.0,
        0.0,
        -1.0,
        0.0,
        0.0,
        0.0,
        0.0,
        0.0,
        1.0
      ],
      "name": "Jet.fbx"
    },
    {
      "children": [
        3,
        5,
        7,
        9,
        11,
        13
      ],
      "name": "RootNode"
    },
    {
      "children": [
        4
      ],
      "matrix": [
        1.0,
        0.0,
        0.0,
        0.0,
        0.0,
        1.0,
        0.0,
        0.0,
        0.0,
        0.0,
        1.0,
        0.0,
        0.0,
        0.5999999642372131,
        0.0,
        1.0
      ],
      "name": "Plane"
    },
    {
      "mesh": 0,
      "name": "Plane_Plane Body_0"
    },
    {
      "children": [
        6
      ],
      "matrix": [
        0.10000000149011612,
        0.0,
        0.0,
        0.0,
        0.0,
        0.10000000149011612,
        0.0,
        0.0,
        0.0,
        0.0,
        0.10000000149011612,
        0.0,
        0.09999999403953552,
        0.15000000596046448,
        2.0,
        1.0
      ],
      "name": "FL"
    },
    {
      "mesh": 1,
      "name": "FL_Plane Body_0"
    },
    {
      "children": [
        8
      ],
      "matrix": [
        0.10000000149011612,
        0.0,
        0.0,
        0.0,
        0.0,
        0.10000000149011612,
        0.0,
        0.0,
        0.0,
        0.0,
        0.10000000149011612,
        0.0,
        -1.0,
        0.15000000596046448,
        -1.0,
        1.0
      ],
      "name": "BR"
    },
    {
      "mesh": 2,
      "name": "BR_Plane Body_0"
    },
    {
      "children": [
        10
      ],
      "matrix": [
        0.10000000149011612,
        0.0,
        0.0,
        0.0,
        0.0,
        0.10000000149011612,
        0.0,
        0.0,
        0.0,
        0.0,
        0.10000000149011612,
        0.0,
        1.0,
        0.15000000596046448,
        -1.0,
        1.0
      ],
      "name": "BL"
    },
    {
      "mesh": 3,
      "name": "BL_Plane Body_0"
    },
    {
      "children": [
        12
      ],
      "matrix": [
        0.10000000149011612,
        0.0,
        0.0,
        0.0,
        0.0,
        0.10000000149011612,
        0.0,
        0.0,
        0.0,
        0.0,
        0.10000000149011612,
        0.0,
        -0.09999999403953552,
        0.15000000596046448,
        2.0,
        1.0
      ],
      "name": "FR"
    },
    {
      "mesh": 4,
      "name": "FR_Plane Body_0"
    },
    {
      "children": [
        14
      ],
      "matrix": [
        -0.3237446406264204,
        -0.642787587658752,
        -0.6942719386648953,
        0.0,
        -0.2716538426647994,
        0.7660444616024753,
        -0.5825633636040136,
        0.0,
        0.9063076185895018,
        -1.2679943372229867e-07,
        -0.42261848194006363,
        0.0,
        5.0,
        10.0,
        10.0,
        1.0
      ],
      "name": "Camera"
    },
    {
      "name": "Object_14"
    }
  ],
  "samplers": [
    {
      "magFilter": 9729,
      "minFilter": 9987,
      "wrapS": 10497,
      "wrapT": 10497
    }
  ],
  "scene": 0,
  "scenes": [
    {
      "name": "Sketchfab_Scene",
      "nodes": [
        0
      ]
    }
  ],
  "textures": [
    {
      "sampler": 0,
      "source": 0
    },
    {
      "sampler": 0,
      "source": 1
    }
  ]
}
